<svg xmlns="http://www.w3.org/2000/svg"><style>:root svg:not(:target){display:none}</style><svg aria-label="Cart." fill="none" id="cart" viewBox="0 0 19 19"><path d="M17.585 11.249 19 4.347H5.052L4.568 2.05.364 0 0 .725 3.839 2.58l1.939 9.26h11.206s1.105.693.678 1.57c-.19.271-.484.604-1.012.604H5.498v.8h11.156c.768 0 1.415-.404 1.78-1.048.713-1.334-.85-2.516-.85-2.516Zm-11.117-.221L5.215 5.149h12.816l-1.214 5.879H6.467ZM7.802 15.94a1.53 1.53 0 0 0-1.536 1.528 1.53 1.53 0 0 0 1.536 1.528 1.53 1.53 0 0 0 1.535-1.528 1.53 1.53 0 0 0-1.535-1.527Zm0 2.254a.725.725 0 1 1 0-1.45.725.725 0 1 1 0 1.45ZM16.05 15.94a1.53 1.53 0 1 0 0 3.06c.848 0 1.577-.682 1.535-1.528 0-.845-.687-1.531-1.536-1.531Zm.728 1.532a.722.722 0 0 1-.729.725.722.722 0 0 1-.729-.725c0-.403.322-.725.73-.725.406 0 .767.322.728.725Z" fill="currentColor"></path></svg><svg aria-label="Heart." fill="none" id="heart" viewBox="0 0 18 17"><path d="M9 17s-.503-.36-.696-.536a212.367 212.367 0 0 0-2.047-1.84l-.003-.003c-1.813-1.615-3.38-3.01-4.469-4.384C.567 8.701 0 7.245 0 5.654c0-1.546.507-2.972 1.428-4.016A4.746 4.746 0 0 1 5.028 0c1.04 0 1.991.343 2.829 1.02.422.342.805.76 1.143 1.248.338-.488.72-.906 1.143-1.248C10.981.343 11.933 0 12.973 0c1.39 0 2.668.582 3.6 1.638C17.493 2.682 18 4.108 18 5.654c0 1.59-.567 3.047-1.785 4.583-1.09 1.374-2.655 2.769-4.469 4.384-.62.552-1.322 1.177-2.05 1.843C9.503 16.64 9 17 9 17ZM5.028 1.102a3.723 3.723 0 0 0-2.825 1.283c-.74.84-1.149 2-1.149 3.269 0 1.338.476 2.535 1.543 3.88 1.031 1.3 2.565 2.667 4.341 4.248l.003.003c.621.553 1.325 1.18 2.057 1.85.737-.67 1.442-1.299 2.064-1.853 1.776-1.582 3.31-2.947 4.341-4.248 1.067-1.345 1.543-2.542 1.543-3.88 0-1.268-.408-2.43-1.149-3.27a3.723 3.723 0 0 0-2.825-1.282c-.8 0-1.535.266-2.184.79-.578.467-1.216 1.471-1.216 1.471L9 4.066l-.572-.703S7.79 2.36 7.212 1.892c-.649-.524-1.384-.79-2.184-.79Z" fill="currentColor"></path></svg><svg aria-label="MonoStore main logo." fill="none" id="logotype" viewBox="0 0 98 31"><path d="M40.457.264h2.045l4.629 8.945h.098L51.768.264h2.009v11.663h-2.01V2.366h-.062l-4.88 9.56h-.412l-4.933-9.48h-.135v9.48h-.888V.265ZM63.04 12.2c-.922 0-1.782-.162-2.584-.484a6.65 6.65 0 0 1-2.08-1.32 6.373 6.373 0 0 1-1.39-1.961 5.827 5.827 0 0 1-.503-2.401c0-.557.075-1.094.224-1.61a5.861 5.861 0 0 1 1.668-2.656c.401-.37.843-.683 1.328-.941a6.635 6.635 0 0 1 1.57-.607A7.044 7.044 0 0 1 63.038 0c.616 0 1.205.073 1.767.22.562.14 1.086.343 1.57.607.49.258.933.572 1.327.94.395.364.733.77 1.014 1.215.287.445.505.926.655 1.442.155.516.233 1.053.233 1.61 0 .569-.078 1.114-.233 1.636a5.702 5.702 0 0 1-.655 1.469 6.186 6.186 0 0 1-1.014 1.249 6.674 6.674 0 0 1-2.897 1.592 6.973 6.973 0 0 1-1.767.22Zm0-.581c.681 0 1.282-.138 1.802-.413a3.868 3.868 0 0 0 1.328-1.17 5.316 5.316 0 0 0 .807-1.768c.185-.68.278-1.425.278-2.234 0-.804-.093-1.54-.278-2.208-.18-.668-.449-1.243-.807-1.724A3.682 3.682 0 0 0 64.842.976c-.52-.27-1.12-.404-1.803-.404-.693 0-1.303.135-1.83.404-.52.264-.959.64-1.318 1.126-.353.481-.619 1.056-.798 1.724a8.506 8.506 0 0 0-.27 2.208c0 .809.09 1.554.27 2.234.18.68.445 1.27.798 1.768.359.498.798.888 1.319 1.17.526.275 1.136.413 1.83.413ZM72.29.264h1.12l7.795 8.532h.09V.264h.879V12.2h-.467l-8.44-9.482h-.072v9.209h-.905V.264ZM91.434 12.2c-.92 0-1.781-.162-2.583-.484a6.65 6.65 0 0 1-2.08-1.32 6.373 6.373 0 0 1-1.39-1.961 5.827 5.827 0 0 1-.503-2.401c0-.557.075-1.094.224-1.61a5.861 5.861 0 0 1 1.668-2.656c.401-.37.844-.683 1.328-.941a6.635 6.635 0 0 1 1.57-.607A7.044 7.044 0 0 1 91.434 0c.616 0 1.205.073 1.767.22.563.14 1.086.343 1.57.607.49.258.933.572 1.328.94.394.364.732.77 1.013 1.215.287.445.505.926.655 1.442.155.516.233 1.053.233 1.61 0 .569-.078 1.114-.233 1.636a5.702 5.702 0 0 1-.655 1.469 6.186 6.186 0 0 1-1.013 1.249 6.674 6.674 0 0 1-2.897 1.592 6.973 6.973 0 0 1-1.767.22Zm0-.581c.682 0 1.283-.138 1.803-.413a3.868 3.868 0 0 0 1.328-1.17 5.316 5.316 0 0 0 .807-1.768c.185-.68.278-1.425.278-2.234 0-.804-.093-1.54-.278-2.208-.18-.668-.448-1.243-.807-1.724A3.682 3.682 0 0 0 93.237.976c-.52-.27-1.12-.404-1.802-.404-.694 0-1.304.135-1.83.404-.52.264-.96.64-1.319 1.126-.353.481-.619 1.056-.798 1.724a8.506 8.506 0 0 0-.27 2.208c0 .809.09 1.554.27 2.234.18.68.445 1.27.798 1.768.36.498.799.888 1.319 1.17.526.275 1.136.413 1.83.413ZM44.35 30.261c.293 0 .583-.038.87-.114.287-.082.544-.2.772-.352.227-.158.41-.349.547-.572.137-.228.206-.492.206-.791 0-.358-.096-.675-.287-.95a3.076 3.076 0 0 0-.736-.765 7.06 7.06 0 0 0-1.049-.66c-.389-.205-.786-.41-1.193-.616a29.23 29.23 0 0 1-1.202-.642 6.337 6.337 0 0 1-1.04-.756 3.808 3.808 0 0 1-.745-.933 2.475 2.475 0 0 1-.278-1.187c0-.446.084-.86.251-1.24.174-.381.425-.71.754-.985a3.555 3.555 0 0 1 1.21-.66c.485-.158 1.038-.238 1.66-.238.562 0 1.064.06 1.507.176.442.118.831.29 1.166.52a3.3 3.3 0 0 1 .852.844 4.4 4.4 0 0 1 .565 1.16l-1.023.458a4.472 4.472 0 0 0-.457-.976 3.079 3.079 0 0 0-.664-.765 2.738 2.738 0 0 0-.897-.484A3.434 3.434 0 0 0 44 19.557a2.8 2.8 0 0 0-.986.158c-.281.1-.518.235-.709.405a1.568 1.568 0 0 0-.556 1.196c0 .305.096.586.287.844.191.253.445.493.762.722.317.223.676.44 1.077.65l1.237.643c.42.217.829.442 1.23.677.406.234.768.492 1.085.774.316.275.57.58.762.915.191.328.287.697.287 1.108 0 .463-.09.9-.27 1.31-.178.405-.448.76-.806 1.065-.36.299-.805.536-1.337.712-.532.176-1.15.264-1.856.264a5.807 5.807 0 0 1-1.534-.185 4.004 4.004 0 0 1-1.193-.536 3.65 3.65 0 0 1-.88-.853 4.663 4.663 0 0 1-.6-1.161l1.067-.431c.126.38.293.72.503 1.02.215.299.463.554.744.765.281.205.592.364.933.475.347.111.714.167 1.103.167ZM60.603 19.064v.757h-4.305v10.906h-2V19.821h-4.305v-.757h10.61ZM68.59 31c-.922 0-1.783-.161-2.584-.484a6.648 6.648 0 0 1-2.08-1.32 6.37 6.37 0 0 1-1.391-1.96 5.826 5.826 0 0 1-.502-2.402c0-.557.074-1.093.224-1.61a5.86 5.86 0 0 1 1.668-2.656c.4-.369.843-.683 1.328-.94a6.637 6.637 0 0 1 1.57-.608 7.042 7.042 0 0 1 1.766-.22c.616 0 1.205.074 1.767.22.562.141 1.085.343 1.57.607.49.258.933.572 1.327.941.395.364.733.769 1.014 1.214.287.446.505.927.654 1.443.156.516.234 1.052.234 1.61 0 .568-.078 1.113-.234 1.635a5.705 5.705 0 0 1-.654 1.47 6.192 6.192 0 0 1-1.014 1.248 6.667 6.667 0 0 1-2.897 1.592 6.975 6.975 0 0 1-1.767.22Zm0-.58c.68 0 1.282-.138 1.802-.414a3.869 3.869 0 0 0 1.327-1.17 5.31 5.31 0 0 0 .808-1.768c.185-.68.278-1.425.278-2.234 0-.803-.093-1.539-.278-2.207-.18-.669-.449-1.243-.808-1.724a3.683 3.683 0 0 0-1.327-1.126c-.52-.27-1.121-.405-1.803-.405-.694 0-1.303.135-1.83.405-.52.264-.96.639-1.318 1.126-.353.48-.619 1.055-.798 1.724a8.506 8.506 0 0 0-.27 2.207c0 .81.09 1.554.27 2.234.179.68.445 1.27.798 1.768.359.499.798.889 1.318 1.17.527.276 1.136.413 1.83.413ZM77.84 19.064h4.125c.712 0 1.337.077 1.875.23.538.146.986.354 1.345.624s.628.592.807.967c.186.37.278.774.278 1.214 0 .363-.071.703-.215 1.02a2.792 2.792 0 0 1-.592.862 3.693 3.693 0 0 1-.915.66 5.517 5.517 0 0 1-1.184.43l4.332 5.656h-2.322l-4.135-5.48h-1.4v5.48h-2V19.064Zm2 5.594h1.156c.449 0 .862-.058 1.238-.175.383-.118.712-.282.987-.493a2.3 2.3 0 0 0 .655-.783c.155-.305.233-.648.233-1.029 0-.352-.063-.674-.188-.968a2.021 2.021 0 0 0-.52-.747 2.333 2.333 0 0 0-.799-.493 2.776 2.776 0 0 0-1.005-.176H79.84v4.864ZM97.587 19.064v.757h-6.27v4.169h4.198v.756h-4.198v5.225h6.27v.756h-8.27V19.064h8.27ZM0 30.137V.242L.501 0 15 12.882 29.497 0c.107.133.396.484.396.484L15.197 13.541h-.394L.61.931v29.206H0Z" fill="currentColor"></path><path d="M29.693 30.35a.312.312 0 0 1-.304-.319V6.91L15.197 19.52h-.394L3.188 9.2l.394-.484L15 18.86 29.497 5.978 30 6.22v23.811l-.307.319Z" fill="currentColor"></path><path d="M29.693 30.35H15v-.645l14.693.008c.17 0 .307.143.307.318l-.307.319ZM11.255 29.063a.638.638 0 0 0-.624.65c0 .359.28.65.624.65a.639.639 0 0 0 .624-.65c0-.358-.28-.65-.624-.65Zm0 1.937c-.68 0-1.233-.577-1.233-1.286 0-.71.553-1.287 1.233-1.287s1.232.577 1.232 1.287c0 .709-.553 1.286-1.232 1.286Z" fill="currentColor"></path></svg><svg aria-label="user-icon" fill="none" id="user" viewBox="0 0 15 19"><path d="M7.395 8.009c2.227 0 4.032-1.793 4.032-4.005C11.427 1.793 9.622 0 7.395 0 5.168 0 3.362 1.793 3.362 4.004c.003 2.21 1.807 4.002 4.033 4.005Zm0-7.16c1.755 0 3.178 1.412 3.178 3.155 0 1.743-1.423 3.156-3.178 3.156S4.217 5.747 4.217 4.004C4.219 2.262 5.64.85 7.395.848ZM7.5 9.419C3.357 9.417-.002 12.753 0 16.867V19h15v-2.134c.002-4.113-3.357-7.449-7.5-7.447Zm6.646 8.733H.854v-1.285a6.591 6.591 0 0 1 3.318-5.73 6.687 6.687 0 0 1 6.656 0 6.59 6.59 0 0 1 3.318 5.73v1.285Z" fill="currentColor"></path></svg></svg>