<svg width="30" height="31" aria-label="Логотип MonoStore." fill="none" xmlns="http://www.w3.org/2000/svg"><path d="M0 30.137V.242L.501 0 15 12.882 29.497 0c.107.133.396.484.396.484L15.197 13.541h-.394L.61.931v29.206H0Z" fill="#0E091B"/><path d="M29.693 30.35a.312.312 0 0 1-.304-.319V6.91L15.197 19.52h-.394L3.188 9.2l.394-.484L15 18.86 29.497 5.978 30 6.22v23.811l-.307.319Z" fill="#0E091B"/><path d="M29.693 30.35H15v-.645l14.693.008c.17 0 .307.143.307.318l-.307.319ZM11.255 29.063a.638.638 0 0 0-.624.65c0 .359.28.65.624.65a.639.639 0 0 0 .624-.65c0-.358-.28-.65-.624-.65Zm0 1.937c-.68 0-1.233-.577-1.233-1.286 0-.71.553-1.287 1.233-1.287s1.232.577 1.232 1.287c0 .709-.553 1.286-1.232 1.286Z" fill="#0E091B"/></svg>